<?xml version="1.0" encoding="UTF-8"?>
<svg id="bg" xmlns="http://www.w3.org/2000/svg" viewBox="0 0 133.43 38.13">
  <defs>
    <style>
      .cls-1 {
        fill: #dc3027;
      }
    </style>
  </defs>
  <g>
    <path class="cls-1" d="m52.24,17.59h-1.24v-1.78h1.24v-2.21h2.3v2.21h2.03v1.78h-2.03v4.65c0,1.01.29,1.54,1.56,1.54h.43v1.69c-.25.13-.77.23-1.4.23-1.96,0-2.89-1.11-2.89-3.27v-4.85Z"/>
    <path class="cls-1" d="m58.09,12.52h2.3v4.59c.63-1.04,1.63-1.56,2.85-1.56,1.92,0,3.23,1.15,3.23,3.48v6.41h-2.3v-5.94c0-1.31-.56-2.05-1.72-2.05-1.27,0-2.06,1.11-2.06,2.41v5.58h-2.3v-12.92Z"/>
    <path class="cls-1" d="m68.76,15.82h2.3v1.4c.63-1.15,1.6-1.67,2.64-1.67.39,0,.75.11.93.27v1.99c-.31-.09-.65-.13-1.06-.13-1.74,0-2.51,1.04-2.51,2.64v5.11h-2.3v-9.62Z"/>
    <path class="cls-1" d="m80.08,25.71c-2.91,0-4.68-1.92-4.68-5.06s1.79-5.1,4.59-5.1,4.56,1.9,4.56,5.01v.54h-6.78c.11,1.76.92,2.73,2.31,2.73,1.08,0,1.81-.5,2.12-1.53h2.42c-.52,2.22-2.24,3.41-4.54,3.41Zm-2.26-6.05h4.32c-.22-1.44-.95-2.23-2.15-2.23s-1.96.77-2.17,2.23Z"/>
    <path class="cls-1" d="m86.36,18.98c.31-2.14,1.87-3.43,4.29-3.43,2.67,0,4.04,1.58,4.04,3.8v3.73c0,1.18.11,1.85.29,2.35h-2.39c-.13-.32-.18-.79-.2-1.31-.79,1.11-1.97,1.58-3.12,1.58-1.88,0-3.23-.93-3.23-2.78,0-1.31.74-2.3,2.21-2.78,1.27-.43,2.51-.54,4.13-.56v-.23c0-1.24-.59-1.9-1.87-1.9-1.09,0-1.69.61-1.83,1.53h-2.31Zm3.5,5.03c1.42,0,2.51-1.15,2.51-2.58v-.41c-3.27.05-4.02.83-4.02,1.79,0,.74.57,1.2,1.51,1.2Z"/>
    <path class="cls-1" d="m97.36,17.59h-1.24v-1.78h1.24v-2.21h2.3v2.21h2.03v1.78h-2.03v4.65c0,1.01.29,1.54,1.56,1.54h.43v1.69c-.25.13-.77.23-1.4.23-1.96,0-2.89-1.11-2.89-3.27v-4.85Z"/>
    <path class="cls-1" d="m109.24,19.23c-.22-1.26-.97-1.78-1.94-1.78-1.42,0-2.17,1.13-2.17,3.19s.79,3.16,2.24,3.16c.99,0,1.69-.54,1.92-1.63h2.31c-.43,2.4-2.12,3.53-4.29,3.53-2.84,0-4.56-1.94-4.56-5.06s1.78-5.1,4.54-5.1c2.19,0,3.91,1.22,4.24,3.68h-2.3Z"/>
    <path class="cls-1" d="m113.29,18.98c.31-2.14,1.87-3.43,4.29-3.43,2.67,0,4.04,1.58,4.04,3.8v3.73c0,1.18.11,1.85.29,2.35h-2.39c-.13-.32-.18-.79-.2-1.31-.79,1.11-1.97,1.58-3.12,1.58-1.88,0-3.23-.93-3.23-2.78,0-1.31.74-2.3,2.21-2.78,1.27-.43,2.51-.54,4.13-.56v-.23c0-1.24-.59-1.9-1.87-1.9-1.09,0-1.69.61-1.83,1.53h-2.31Zm3.5,5.03c1.42,0,2.51-1.15,2.51-2.58v-.41c-3.27.05-4.02.83-4.02,1.79,0,.74.57,1.2,1.51,1.2Z"/>
    <path class="cls-1" d="m124.29,17.59h-1.24v-1.78h1.24v-2.21h2.3v2.21h2.03v1.78h-2.03v4.65c0,1.01.29,1.54,1.56,1.54h.43v1.69c-.25.13-.77.23-1.4.23-1.96,0-2.89-1.11-2.89-3.27v-4.85Z"/>
  </g>
  <g>
    <path class="cls-1" d="m16.95,17.91c-.91,0-1.64.73-1.64,1.64s.73,1.64,1.64,1.64,1.64-.73,1.64-1.64-.73-1.64-1.64-1.64Z"/>
    <path class="cls-1" d="m26.48,17.91c-.91,0-1.64.73-1.64,1.64s.73,1.64,1.64,1.64,1.64-.73,1.64-1.64-.73-1.64-1.64-1.64Z"/>
    <path class="cls-1" d="m23.63,22.23c-.25-.31-.63-.49-1.03-.49h-1.77c-.4,0-.78.18-1.03.49l-1.95,2.41c-.66.81-.65,1.99.03,2.79l.15.17h0s1.17,1.38,1.17,1.38c.39.46.96.73,1.57.73h1.9c.61,0,1.18-.27,1.57-.73l1.16-1.38s.01,0,.01,0h0s.14-.17.14-.17c.68-.8.69-1.97.03-2.79l-1.95-2.41Zm-5.05,4.91h0s-.15-.17-.15-.17c-.45-.54-.46-1.33-.02-1.87l1.83-2.27,1.09,1.08v2.96c-.51.06-.98.2-1.32.33-.12.04-.23.08-.32.11-.33.1-.99-.06-1.11-.18h0Zm5.11,1.38c-.25.3-.63.47-1.02.47h-1.9c-.39,0-.77-.17-1.02-.47l-.4-.47c.2,0,.39,0,.55-.06.11-.03.23-.08.36-.13.4-.15.91-.33,1.47-.33s1.06.19,1.46.33c.13.05.25.09.36.13.14.04.31.07.49.07.02,0,.04,0,.06,0l-.4.47Zm1.31-1.56l-.15.17c-.13.12-.78.28-1.1.18-.1-.03-.21-.07-.32-.11-.36-.13-.84-.28-1.38-.33v-2.9l1.14-1.14,1.83,2.27c.44.55.43,1.34-.02,1.87Z"/>
    <path class="cls-1" d="m37.43,21.17c-.21.13-.43.2-.66.2-.11,0-.51-.1-1.18-1.36-.46-.88-.92-2.05-1.36-3.23,1.32-1.24,1.69-2.73,1.98-4.09.21-1.01.41-1.97.98-2.75.77-1.05,1.19-2.04,1.44-2.73l.48-1.07c-5.33-2.36-8.65-.06-11.4,2.93-1.82-.93-3.86-1.46-5.99-1.46s-4.18.53-5.99,1.46c-2.75-2.99-6.07-5.3-11.4-2.93l.52,1.18s.03,0,.05-.02c.25.69.67,1.68,1.44,2.74.57.79.77,1.74.98,2.75.28,1.32.64,2.77,1.88,3.99-.44,1.17-.89,2.35-1.36,3.22-.67,1.26-1.07,1.36-1.18,1.36-.23,0-.45-.06-.66-.2-.33-.21-.76-.18-1.06.07-.3.25-.4.66-.26,1.02,1.35,3.36,3.64,6.23,6.64,8.29,3.06,2.11,6.66,3.23,10.39,3.23s7.33-1.12,10.39-3.23c2.99-2.06,5.29-4.93,6.64-8.29.15-.36.04-.77-.26-1.02-.3-.25-.73-.28-1.06-.07Zm.5-14.1c-.24.64-.64,1.52-1.31,2.44-.66.91-.89,1.99-1.1,3.03-.27,1.28-.57,2.48-1.55,3.52l-.05-.14c-.98-2.59-2.79-4.73-5.05-6.19,2.62-2.78,5.18-4.12,9.07-2.66Zm-29.9,5.57c-.22-1.04-.44-2.12-1.1-3.03-.72-.99-1.12-1.92-1.35-2.56,3.85-1.43,6.4-.08,9.01,2.68-2.27,1.46-4.08,3.6-5.05,6.19l-.05.14c-.91-1.01-1.19-2.19-1.45-3.43Zm28.17,11.8c-3.8-2.27-9.38-.08-9.62.01-.18.07-.27.28-.2.47.06.14.19.22.33.22.04,0,.09,0,.13-.03,1.89-.76,6.17-1.73,8.97-.08-.22.32-.45.61-.69.91-.02-.01-.02-.04-.03-.05-3.38-2.1-7.08-1.03-8.48-.63-.19.05-.3.25-.24.44.05.19.25.3.44.24,1.31-.38,4.78-1.38,7.89.55-.24.28-.5.53-.75.79-.03-.04-.04-.09-.09-.12-3.4-1.9-5.89-1.28-7.23-.95-.19.05-.31.24-.26.43.05.19.24.31.43.26,1.71-.42,3.78-.73,6.66.86-3.1,2.95-7.24,4.71-11.73,4.71s-8.63-1.75-11.73-4.71c2.88-1.59,4.95-1.28,6.66-.86.19.05.39-.07.43-.26s-.07-.39-.26-.43c-1.34-.33-3.83-.94-7.23.95-.05.03-.06.08-.09.12-.25-.26-.51-.51-.75-.79,3.11-1.93,6.58-.93,7.89-.55.19.05.39-.05.44-.24.05-.19-.05-.39-.24-.44-1.39-.4-5.09-1.47-8.48.63-.02.01-.02.03-.03.05-.23-.3-.47-.59-.69-.91,2.8-1.66,7.08-.69,8.97.08.04.02.09.03.13.03.14,0,.28-.08.33-.22.07-.18-.02-.39-.2-.47-.24-.1-5.82-2.29-9.62-.01-.36-.59-.71-1.19-1.01-1.82.14.02.28.04.43.04,1.71,0,2.73-2.72,3.91-5.86l.16-.41c1.68-4.48,6.1-7.49,10.99-7.49s9.3,3.01,10.99,7.49l.16.41c1.18,3.15,2.2,5.86,3.91,5.86.15,0,.29-.01.43-.04-.3.64-.64,1.24-1.01,1.82Z"/>
    <path class="cls-1" d="m20.08,18.91c0-.17-.01-.34-.04-.52l-.03-.2-5.59-2.54-.16.11c-1.07.7-1.71,1.88-1.71,3.15,0,2.07,1.69,3.76,3.76,3.76s3.76-1.69,3.76-3.76Zm-3.76,3.04c-1.68,0-3.04-1.37-3.04-3.04,0-.97.45-1.86,1.22-2.44l4.86,2.21c0,.08,0,.15,0,.23,0,1.68-1.37,3.04-3.04,3.04Z"/>
    <path class="cls-1" d="m29.12,15.76l-.16-.11-5.59,2.54-.03.19c-.02.17-.04.35-.04.52,0,2.07,1.69,3.76,3.76,3.76s3.76-1.69,3.76-3.76c0-1.27-.64-2.45-1.71-3.15Zm-2.05,6.19c-1.68,0-3.04-1.37-3.04-3.04,0-.07,0-.15,0-.23l4.86-2.21c.77.57,1.22,1.47,1.22,2.44,0,1.68-1.37,3.04-3.04,3.04Z"/>
  </g>
</svg>