<?xml version="1.0" encoding="UTF-8"?>
<svg id="bg" xmlns="http://www.w3.org/2000/svg" viewBox="0 0 81.65 18.39">
  <defs>
    <style>
      .cls-1 {
        fill: #dc3027;
      }
    </style>
  </defs>
  <path class="cls-1" d="m3.51,7.68h-1.24v-1.78h1.24v-2.21h2.3v2.21h2.03v1.78h-2.03v4.65c0,1.01.29,1.54,1.56,1.54h.43v1.69c-.25.13-.77.23-1.4.23-1.96,0-2.89-1.11-2.89-3.27v-4.85Z"/>
  <path class="cls-1" d="m9.35,2.6h2.3v4.59c.63-1.04,1.63-1.56,2.85-1.56,1.92,0,3.23,1.15,3.23,3.48v6.41h-2.3v-5.94c0-1.31-.56-2.05-1.72-2.05-1.27,0-2.06,1.11-2.06,2.41v5.58h-2.3V2.6Z"/>
  <path class="cls-1" d="m20.03,5.9h2.3v1.4c.63-1.15,1.6-1.67,2.64-1.67.39,0,.75.11.93.27v1.99c-.31-.09-.65-.13-1.06-.13-1.74,0-2.51,1.04-2.51,2.64v5.11h-2.3V5.9Z"/>
  <path class="cls-1" d="m31.35,15.79c-2.91,0-4.68-1.92-4.68-5.06s1.79-5.1,4.59-5.1,4.56,1.9,4.56,5.01v.54h-6.78c.11,1.76.92,2.73,2.31,2.73,1.08,0,1.81-.5,2.12-1.53h2.42c-.52,2.22-2.24,3.41-4.54,3.41Zm-2.26-6.05h4.32c-.22-1.44-.95-2.23-2.15-2.23s-1.96.77-2.17,2.23Z"/>
  <path class="cls-1" d="m37.63,9.06c.31-2.14,1.87-3.43,4.29-3.43,2.67,0,4.04,1.58,4.04,3.8v3.73c0,1.18.11,1.85.29,2.35h-2.39c-.13-.32-.18-.79-.2-1.31-.79,1.11-1.97,1.58-3.12,1.58-1.88,0-3.23-.93-3.23-2.78,0-1.31.74-2.3,2.21-2.78,1.27-.43,2.51-.54,4.13-.56v-.23c0-1.24-.59-1.9-1.87-1.9-1.09,0-1.69.61-1.83,1.53h-2.31Zm3.5,5.03c1.42,0,2.51-1.15,2.51-2.58v-.41c-3.27.05-4.02.83-4.02,1.79,0,.74.57,1.2,1.51,1.2Z"/>
  <path class="cls-1" d="m48.63,7.68h-1.24v-1.78h1.24v-2.21h2.3v2.21h2.03v1.78h-2.03v4.65c0,1.01.29,1.54,1.56,1.54h.43v1.69c-.25.13-.77.23-1.4.23-1.96,0-2.89-1.11-2.89-3.27v-4.85Z"/>
  <path class="cls-1" d="m60.51,9.31c-.22-1.26-.97-1.78-1.94-1.78-1.42,0-2.17,1.13-2.17,3.19s.79,3.16,2.24,3.16c.99,0,1.69-.54,1.92-1.63h2.31c-.43,2.4-2.12,3.53-4.29,3.53-2.84,0-4.56-1.94-4.56-5.06s1.78-5.1,4.54-5.1c2.19,0,3.91,1.22,4.24,3.68h-2.3Z"/>
  <path class="cls-1" d="m64.56,9.06c.31-2.14,1.87-3.43,4.29-3.43,2.67,0,4.04,1.58,4.04,3.8v3.73c0,1.18.11,1.85.29,2.35h-2.39c-.13-.32-.18-.79-.2-1.31-.79,1.11-1.97,1.58-3.12,1.58-1.88,0-3.23-.93-3.23-2.78,0-1.31.74-2.3,2.21-2.78,1.27-.43,2.51-.54,4.13-.56v-.23c0-1.24-.59-1.9-1.87-1.9-1.09,0-1.69.61-1.83,1.53h-2.31Zm3.5,5.03c1.42,0,2.51-1.15,2.51-2.58v-.41c-3.27.05-4.02.83-4.02,1.79,0,.74.57,1.2,1.51,1.2Z"/>
  <path class="cls-1" d="m75.56,7.68h-1.24v-1.78h1.24v-2.21h2.3v2.21h2.03v1.78h-2.03v4.65c0,1.01.29,1.54,1.56,1.54h.43v1.69c-.25.13-.77.23-1.4.23-1.96,0-2.89-1.11-2.89-3.27v-4.85Z"/>
</svg>