<?xml version="1.0" encoding="UTF-8"?>
<svg id="Layer_1" data-name="Layer 1" xmlns="http://www.w3.org/2000/svg" viewBox="0 0 32 32">
  <defs>
    <style>
      .cls-1 {
        stroke-width: 0px;
      }
    </style>
  </defs>
  <path class="cls-1" d="m14.8,15.77c0-.15-.01-.3-.03-.45l-.02-.14c-.03-.22-.17-.41-.37-.5l-3.88-1.77c-.2-.09-.44-.08-.63.05l-.11.07c-.93.61-1.48,1.63-1.48,2.73,0,1.8,1.46,3.26,3.26,3.26s3.26-1.46,3.26-3.26Zm-3.26,1.96c-1.08,0-1.96-.88-1.96-1.96,0-.59.27-1.15.72-1.52l3.21,1.46s0,.04,0,.06c0,1.08-.88,1.96-1.96,1.96Zm10.71-4.7l-.11-.07c-.19-.12-.42-.14-.62-.05l-3.88,1.77c-.2.09-.34.28-.37.5l-.02.13c-.02.15-.03.3-.03.45,0,1.8,1.46,3.26,3.26,3.26s3.26-1.46,3.26-3.26c0-1.1-.55-2.13-1.48-2.73Zm-1.78,4.7c-1.08,0-1.96-.88-1.96-1.96,0-.02,0-.04,0-.06l3.21-1.46c.45.37.72.92.72,1.52,0,1.08-.88,1.96-1.96,1.96Zm10.61-1.26c-.57-.48-1.37-.55-2.02-.18-.3-.18-.82-.55-1.07-1.03-.25-.46-.5-1.07-.75-1.72,0,0,0,0,0,0,0-.01-.01-.02-.01-.03-.02-.04-.03-.08-.05-.13.87-1.05,1.18-2.24,1.4-3.3.15-.73.28-1.36.62-1.81.66-.91,1.55-3.01,1.65-3.25.21-.5-.02-1.08-.52-1.3-4.59-2.04-7.61-.12-9.75,2.05-.02,0-.03-.01-.05-.02,0,0,0,0,0,0,0,0,0,0,0,0-2.89-1.23-6.19-1.23-9.08.02C9.28,3.61,6.26,1.69,1.68,3.73c-.5.22-.73.81-.51,1.31.11.24,1.06,2.4,1.72,3.31.33.45.46,1.08.62,1.82.21,1.02.51,2.17,1.33,3.21-.28.72-.55,1.39-.82,1.9-.25.48-.77.85-1.07,1.03-.64-.37-1.45-.3-2.02.18-.59.49-.79,1.31-.51,2.02,1.23,3.07,3.33,5.7,6.07,7.58,2.81,1.93,6.09,2.95,9.51,2.95s6.71-1.02,9.51-2.95c2.74-1.88,4.84-4.51,6.07-7.58.29-.71.08-1.53-.51-2.02Zm-2.49-11.29c-.32.69-.72,1.5-1,1.9-.59.8-.77,1.71-.96,2.59-.12.59-.27,1.13-.5,1.63-.77-1.34-1.99-3.07-3.81-4.44,1.77-1.68,3.64-2.53,6.27-1.68Zm-24.08,1.97c-.29-.4-.73-1.26-1.07-1.98,2.65-.85,4.51.01,6.29,1.71-1.47,1.13-2.74,2.61-3.8,4.41-.21-.48-.35-1-.46-1.56-.18-.88-.37-1.78-.96-2.58Zm19.88,17.27c-2.47,1.7-5.37,2.6-8.38,2.6s-5.91-.9-8.38-2.6c-2.26-1.55-4.02-3.67-5.13-6.16.18.05.37.08.56.08.61,0,2.11-.98,2.73-2.15.3-.56.98-2.18,1.01-2.26,1.35-2.94,3.2-5.07,5.49-6.34,2.38-1.01,5.09-1,7.46.01,3.3,1.71,4.9,5.1,5.42,6.23.04.09.75,1.79,1.05,2.36.62,1.17,2.12,2.15,2.73,2.15.19,0,.38-.03.56-.08-1.11,2.48-2.87,4.6-5.13,6.16Zm-5.17-1.91c0,.55-.45,1-1,1h-4.42c-.55,0-1-.45-1-1s.45-1,1-1h4.42c.55,0,1,.45,1,1Z"/>
</svg>